<svg width="19" height="15" fill="none" xmlns="http://www.w3.org/2000/svg"><path fill-rule="evenodd" clip-rule="evenodd" d="M.055 13.318a.19.19 0 0 1 0-.268l5.416-5.416a.19.19 0 0 0 0-.268L.055 1.95a.19.19 0 0 1 0-.268L1.682.055a.19.19 0 0 1 .268 0l7.31 7.311a.19.19 0 0 1 0 .268l-7.31 7.31a.19.19 0 0 1-.268 0L.055 13.319Z" fill="#FF4646"/><path fill-rule="evenodd" clip-rule="evenodd" d="M.055 13.318a.19.19 0 0 1 0-.268l5.416-5.416a.19.19 0 0 0 0-.268L.055 1.95a.19.19 0 0 1 0-.268L1.682.055a.19.19 0 0 1 .268 0l7.31 7.311a.19.19 0 0 1 0 .268l-7.31 7.31a.19.19 0 0 1-.268 0L.055 13.319Z" fill="url(#a)" fill-opacity=".3"/><path fill-rule="evenodd" clip-rule="evenodd" d="M.055 13.318a.19.19 0 0 1 0-.268l5.416-5.416a.19.19 0 0 0 0-.268L.055 1.95a.19.19 0 0 1 0-.268L1.682.055a.19.19 0 0 1 .268 0l7.31 7.311a.19.19 0 0 1 0 .268l-7.31 7.31a.19.19 0 0 1-.268 0L.055 13.319Z" fill="url(#b)" fill-opacity=".3"/><path fill-rule="evenodd" clip-rule="evenodd" d="M9.529 13.318a.19.19 0 0 1 0-.268l5.415-5.416a.19.19 0 0 0 0-.268L9.53 1.95a.19.19 0 0 1 0-.268L11.155.055a.19.19 0 0 1 .268 0l7.31 7.311a.19.19 0 0 1 0 .268l-7.31 7.31a.19.19 0 0 1-.268 0L9.53 13.319Z" fill="#FF4646"/><path fill-rule="evenodd" clip-rule="evenodd" d="M9.529 13.318a.19.19 0 0 1 0-.268l5.415-5.416a.19.19 0 0 0 0-.268L9.53 1.95a.19.19 0 0 1 0-.268L11.155.055a.19.19 0 0 1 .268 0l7.31 7.311a.19.19 0 0 1 0 .268l-7.31 7.31a.19.19 0 0 1-.268 0L9.53 13.319Z" fill="url(#c)" fill-opacity=".3"/><path fill-rule="evenodd" clip-rule="evenodd" d="M9.529 13.318a.19.19 0 0 1 0-.268l5.415-5.416a.19.19 0 0 0 0-.268L9.53 1.95a.19.19 0 0 1 0-.268L11.155.055a.19.19 0 0 1 .268 0l7.31 7.311a.19.19 0 0 1 0 .268l-7.31 7.31a.19.19 0 0 1-.268 0L9.53 13.319Z" fill="url(#d)" fill-opacity=".3"/><defs><radialGradient id="a" cx="0" cy="0" r="1" gradientUnits="userSpaceOnUse" gradientTransform="matrix(18.73317 15.0285 -14.67107 18.28762 -.01 .028)"><stop stop-color="#9000FF"/><stop offset="1" stop-opacity="0"/></radialGradient><radialGradient id="b" cx="0" cy="0" r="1" gradientUnits="userSpaceOnUse" gradientTransform="rotate(120.885 8.942 5.345) scale(16.9963 19.2554)"><stop stop-color="#FD0"/><stop offset="1" stop-color="#FD0" stop-opacity="0"/></radialGradient><radialGradient id="c" cx="0" cy="0" r="1" gradientUnits="userSpaceOnUse" gradientTransform="matrix(18.73317 15.0285 -14.67107 18.28762 -.01 .028)"><stop stop-color="#9000FF"/><stop offset="1" stop-opacity="0"/></radialGradient><radialGradient id="d" cx="0" cy="0" r="1" gradientUnits="userSpaceOnUse" gradientTransform="rotate(120.885 8.942 5.345) scale(16.9963 19.2554)"><stop stop-color="#FD0"/><stop offset="1" stop-color="#FD0" stop-opacity="0"/></radialGradient></defs></svg>