<svg width="24" height="24" fill="none" xmlns="http://www.w3.org/2000/svg"><defs><clipPath id="a"><path fill="#fff" fill-opacity="0" d="M0 0h24v24H0z"/></clipPath></defs><g clip-path="url(#a)"><path d="M3.01 5.23 3 5.25c-.43 0-.75-.33-.75-.75 0-.43.32-.75.75-.75l.01.01v1.47Zm17.97-1.47.02-.01c.42 0 .75.32.75.75 0 .42-.33.75-.75.75l-.02-.02V3.76Z" fill="none"/><path d="M3 4.5h18" stroke="#FFF" stroke-width="1.5" stroke-linejoin="round" stroke-linecap="round"/><path d="m3.01 10.22-.01.03c-.43 0-.75-.33-.75-.75 0-.43.32-.75.75-.75l.01.01v1.46Zm17.97-1.46.02-.01c.42 0 .75.32.75.75 0 .42-.33.75-.75.75l-.02-.03V8.76Z" fill="none"/><path d="M3 9.5h18" stroke="#FFF" stroke-width="1.5" stroke-linejoin="round" stroke-linecap="round"/><path d="m2.56 13.58-.03.01a.76.76 0 0 1-.13-1.06.76.76 0 0 1 1.06-.13v.03l-.9 1.15Zm17.97-1.15v-.03c.34-.25.8-.2 1.06.13.25.34.2.8-.13 1.06l-.03-.01-.9-1.15Z" fill="none"/><path d="m3 13 9 7 9-7" stroke="#FFF" stroke-width="1.5" stroke-linejoin="round" stroke-linecap="round"/></g></svg>