<svg width="24" height="24" fill="none" xmlns="http://www.w3.org/2000/svg"><defs><clipPath id="a"><path fill="#fff" fill-opacity="0" d="M0 0h24v24H0z"/></clipPath></defs><g clip-path="url(#a)"><path d="M12 10c1.93 0 3.5-1.57 3.5-3.5C15.5 4.56 13.93 3 12 3c-1.94 0-3.5 1.56-3.5 3.5 0 1.93 1.56 3.5 3.5 3.5Z"/><path d="M15.5 6.5C15.5 4.56 13.93 3 12 3c-1.94 0-3.5 1.56-3.5 3.5 0 1.93 1.56 3.5 3.5 3.5 1.93 0 3.5-1.57 3.5-3.5Z" stroke="#FFF" stroke-width="1.5" stroke-linejoin="round"/><path d="M3 20.39V21h18v-.61c0-2.24 0-3.36-.44-4.21a4 4 0 0 0-1.75-1.75C17.96 14 16.84 14 14.6 14H9.4c-2.25 0-3.37 0-4.22.43a4 4 0 0 0-1.75 1.75C3 17.03 3 18.15 3 20.39Z"/><path d="M3 21h18v-.61c0-2.24 0-3.36-.44-4.21a4 4 0 0 0-1.75-1.75C17.96 14 16.84 14 14.6 14H9.4c-2.25 0-3.37 0-4.22.43a4 4 0 0 0-1.75 1.75C3 17.03 3 18.15 3 20.39V21Z" stroke="#FFF" stroke-width="1.5" stroke-linejoin="round"/></g></svg>