<svg width="24" height="18" fill="none" xmlns="http://www.w3.org/2000/svg"><path d="M19.984 1.496A19.102 19.102 0 0 0 15.181 0a.101.101 0 0 0-.078.034c-.203.37-.439.855-.596 1.226-1.79-.27-3.61-.27-5.399 0A11.276 11.276 0 0 0 8.501.034C8.489.01 8.456 0 8.422 0a19.245 19.245 0 0 0-4.803 1.496c-.01 0-.022.011-.033.022C.526 6.096-.317 10.55.099 14.958c0 .023.011.046.034.057a19.538 19.538 0 0 0 5.893 2.98c.034.012.068 0 .08-.022.449-.619.854-1.271 1.203-1.957.022-.045 0-.09-.045-.101a13.842 13.842 0 0 1-1.845-.878c-.045-.022-.045-.09-.011-.123.123-.09.247-.192.37-.281a.07.07 0 0 1 .08-.012c3.869 1.766 8.041 1.766 11.865 0a.07.07 0 0 1 .079.011c.124.102.247.192.371.293.045.034.045.101-.011.124-.585.348-1.203.63-1.845.877-.045.011-.056.067-.045.101.36.686.765 1.338 1.204 1.957.034.011.067.023.101.011a19.46 19.46 0 0 0 5.905-2.98.062.062 0 0 0 .034-.056c.494-5.095-.821-9.515-3.487-13.44-.011-.012-.023-.023-.045-.023ZM7.894 12.27c-1.16 0-2.126-1.069-2.126-2.385 0-1.316.944-2.384 2.125-2.384 1.193 0 2.137 1.08 2.126 2.384 0 1.316-.945 2.385-2.126 2.385Zm7.839 0c-1.159 0-2.126-1.069-2.126-2.385 0-1.316.945-2.384 2.126-2.384 1.192 0 2.136 1.08 2.125 2.384 0 1.316-.933 2.385-2.125 2.385Z" fill="#fff"/></svg>