<svg width="27" height="16" fill="none" xmlns="http://www.w3.org/2000/svg"><path d="M25.85 15.999h-2.949c-1.115 0-1.45-.904-3.45-2.904-1.747-1.684-2.485-1.893-2.927-1.893-.611 0-.778.168-.778 1.01v2.65c0 .718-.232 1.138-2.106 1.138a11.5 11.5 0 0 1-8.988-5.389A23.494 23.494 0 0 1 0 .844C0 .402.168.002 1.01.002h2.947c.757 0 1.03.337 1.327 1.116 1.43 4.21 3.872 7.873 4.863 7.873.38 0 .545-.168.545-1.115V3.539C10.567 1.56 9.516 1.394 9.516.678a.728.728 0 0 1 .756-.676h4.632c.633 0 .842.315.842 1.072v5.854c0 .632.272.842.463.842.38 0 .672-.21 1.368-.905A24.243 24.243 0 0 0 21.198.843a1.27 1.27 0 0 1 1.284-.84h2.947c.884 0 1.072.442.884 1.073a36.784 36.784 0 0 1-3.957 6.8c-.318.484-.444.736 0 1.305.292.442 1.326 1.305 2.02 2.126a13.12 13.12 0 0 1 2.484 3.45c.253.822-.168 1.242-1.01 1.242Z" fill="#fff"/></svg>