<svg width="18" height="16" fill="none" xmlns="http://www.w3.org/2000/svg"><path d="M8.889 16 7.6 14.849C3.022 10.777 0 8.083 0 4.796 0 2.1 2.151 0 4.889 0c1.547 0 3.031.706 4 1.814a5.389 5.389 0 0 1 4-1.814c2.738 0 4.889 2.101 4.889 4.796 0 3.287-3.022 5.981-7.6 10.053L8.888 16Z" fill="#FF4646"/><path d="M8.889 16 7.6 14.849C3.022 10.777 0 8.083 0 4.796 0 2.1 2.151 0 4.889 0c1.547 0 3.031.706 4 1.814a5.389 5.389 0 0 1 4-1.814c2.738 0 4.889 2.101 4.889 4.796 0 3.287-3.022 5.981-7.6 10.053L8.888 16Z" fill="url(#a)" fill-opacity=".3"/><path d="M8.889 16 7.6 14.849C3.022 10.777 0 8.083 0 4.796 0 2.1 2.151 0 4.889 0c1.547 0 3.031.706 4 1.814a5.389 5.389 0 0 1 4-1.814c2.738 0 4.889 2.101 4.889 4.796 0 3.287-3.022 5.981-7.6 10.053L8.888 16Z" fill="url(#b)" fill-opacity=".3"/><defs><radialGradient id="a" cx="0" cy="0" r="1" gradientUnits="userSpaceOnUse" gradientTransform="rotate(42.126 -.044 .004) scale(23.8985 23.7787)"><stop stop-color="#9000FF"/><stop offset="1" stop-opacity="0"/></radialGradient><radialGradient id="b" cx="0" cy="0" r="1" gradientUnits="userSpaceOnUse" gradientTransform="rotate(117.949 8.44 5.376) scale(17.6129 18.7531)"><stop stop-color="#FD0"/><stop offset="1" stop-color="#FD0" stop-opacity="0"/></radialGradient></defs></svg>