<svg width="43" height="42" fill="none" xmlns="http://www.w3.org/2000/svg"><path fill-rule="evenodd" clip-rule="evenodd" d="M28.724 0h.328a21.546 21.546 0 0 1-.738 2.338c6.974 2.682 11.28 7.672 12.92 14.97.104.655.2 1.312.286 1.97l-.082.245a70.22 70.22 0 0 1-4.757.492c-.526-5.305-3.069-9.311-7.63-12.017a12.492 12.492 0 0 0-2.214-.944 24.29 24.29 0 0 1-.82 2.626 17.39 17.39 0 0 0-4.266-6.03A21.28 21.28 0 0 1 28.724 0Zm-1.805 2.05c.051.035.078.09.082.165l-.246.82a.405.405 0 0 0 .082.205c6.475 2.073 10.727 6.352 12.756 12.838.203.756.353 1.522.45 2.297-.737.087-1.475.17-2.214.246-1.022-5.764-4.166-9.907-9.434-12.428a60.278 60.278 0 0 0-2.337-.861 5.197 5.197 0 0 0-.328.984 14.963 14.963 0 0 0-1.928-2.502c.98-.695 2.02-1.283 3.117-1.763ZM.833 14.11v-.329c.794.202 1.573.448 2.338.738C5.853 7.545 10.843 3.24 18.14 1.6c.656-.104 1.312-.2 1.97-.287l.245.082c.218 1.58.382 3.165.493 4.758-5.307.526-9.312 3.069-12.018 7.63-.387.71-.702 1.448-.943 2.214.89.224 1.765.497 2.625.82a17.39 17.39 0 0 0-6.03 4.266 21.28 21.28 0 0 1-3.65-6.973ZM18.798 2.788h.41c.088.738.17 1.476.246 2.215C13.69 6.025 9.547 9.17 7.026 14.437a60.278 60.278 0 0 0-.861 2.338c.317.142.645.252.984.328-.9.554-1.734 1.196-2.502 1.928a16.19 16.19 0 0 1-1.763-3.158c.335.006.664.075.984.205a.404.404 0 0 0 .205-.082c1.943-6.154 5.949-10.324 12.018-12.51a32.876 32.876 0 0 1 2.707-.697ZM22.817 12.633c.493.013.957.122 1.395.328l-.328 1.066-.205.082a3.867 3.867 0 0 0-1.026-.164c.028-.442.083-.88.164-1.312ZM19.946 12.715h.246l.247 1.312a4.59 4.59 0 0 0-1.149.328c-.18-.375-.344-.758-.492-1.148a5.03 5.03 0 0 1 1.148-.492ZM26.509 14.027c.44.221.823.522 1.148.903-.277.318-.565.619-.861.902-.306-.256-.62-.502-.944-.738.242-.347.46-.702.657-1.067ZM16.419 14.437c.35.27.651.598.902.985-.272.313-.559.614-.861.902a4.911 4.911 0 0 1-.943-.902l.902-.985ZM29.134 17.062h.246c.14.417.304.827.492 1.23-.394.196-.804.36-1.23.493a19.854 19.854 0 0 0-.493-1.107c.318-.227.646-.432.985-.616ZM14.04 17.637c.42.169.83.36 1.23.574a9.656 9.656 0 0 1-.45 1.148 9.42 9.42 0 0 0-1.026-.287.298.298 0 0 1-.164-.164c.145-.423.282-.847.41-1.271ZM28.97 20.918h1.312a18.42 18.42 0 0 1-.082 1.476 16.197 16.197 0 0 0-1.312-.164c.049-.436.076-.873.082-1.312ZM42.833 27.89v.329a21.539 21.539 0 0 1-2.338-.739c-2.466 6.559-7.074 10.784-13.822 12.674a15.07 15.07 0 0 1-3.363.451 70.156 70.156 0 0 1-.493-4.758c5.306-.525 9.312-3.068 12.018-7.628.387-.712.701-1.45.943-2.215a24.293 24.293 0 0 1-2.625-.82 17.387 17.387 0 0 0 6.03-4.266 21.28 21.28 0 0 1 3.65 6.972Zm-3.855-4.921a13.795 13.795 0 0 1 1.804 3.158 2.732 2.732 0 0 1-.984-.205.404.404 0 0 0-.205.082c-1.943 6.153-5.949 10.323-12.018 12.51a16.737 16.737 0 0 1-3.117.697c-.087-.738-.17-1.476-.246-2.215 5.766-1.024 9.909-4.169 12.428-9.434a60.18 60.18 0 0 0 .861-2.338 6.742 6.742 0 0 0-.984-.328c.9-.545 1.72-1.188 2.46-1.927ZM13.794 21.574c.306-.027.606 0 .902.082.093.377.148.76.164 1.149-.375.049-.744.13-1.107.246l-.123-.082a12.894 12.894 0 0 1-.246-1.23c.147-.056.284-.11.41-.165ZM14.942 42h-.328c.202-.794.448-1.573.738-2.338C8.794 37.195 4.57 32.588 2.68 25.84a15.07 15.07 0 0 1-.451-3.364 70.223 70.223 0 0 1 4.757-.492c.526 5.306 3.069 9.312 7.63 12.018.71.387 1.449.701 2.214.943.224-.89.497-1.765.82-2.625a17.389 17.389 0 0 0 4.266 6.03A21.279 21.279 0 0 1 14.942 42ZM5.51 23.379h.328c1.022 5.764 4.166 9.907 9.434 12.427.775.304 1.554.592 2.337.862.142-.317.252-.645.328-.985.554.901 1.196 1.735 1.928 2.502a16.188 16.188 0 0 1-3.158 1.764c.006-.336.075-.664.205-.984a.404.404 0 0 0-.082-.205c-6.475-2.073-10.727-6.353-12.756-12.838a17.173 17.173 0 0 1-.45-2.297 32.445 32.445 0 0 0 1.886-.246ZM28.15 24.281c.407.177.79.395 1.148.656-.182.427-.428.81-.738 1.149a3.425 3.425 0 0 1-.985-.78c.182-.349.373-.69.574-1.025ZM15.68 24.773c.296.297.57.625.821.985-.29.302-.604.575-.943.82a3.293 3.293 0 0 1-.862-1.066c.33-.247.659-.493.985-.739ZM25.77 26.906a.36.36 0 0 1 .288.082l.615.944a8.629 8.629 0 0 1-1.19.697 3.868 3.868 0 0 1-.615-1.149c.32-.173.62-.364.902-.574ZM18.224 27.152c.4.159.755.377 1.066.656-.103.357-.24.699-.41 1.026a2.884 2.884 0 0 1-1.313-.574c.23-.365.45-.734.657-1.108ZM22.571 28.055c.127.06.195.169.205.328l.123.984a4.143 4.143 0 0 1-1.476 0c.078-.405.105-.815.082-1.23.372.026.727-.002 1.066-.082Z" fill="#fff"/></svg>