<svg width="43" height="42" fill="none" xmlns="http://www.w3.org/2000/svg"><path fill-rule="evenodd" clip-rule="evenodd" d="M19.337 0H24.6c6.918 1.04 12.168 4.542 15.75 10.506a22.468 22.468 0 0 1 2.59 7.552v5.827c-1.351 7.748-5.6 13.26-12.747 16.54a19.688 19.688 0 0 1-8.553 1.559c-.438-.387-.438-.77 0-1.15 7.562-.222 13.36-3.491 17.393-9.808 3.02-5.374 3.54-10.982 1.563-16.826-2.428-6.062-6.745-10.125-12.953-12.19C18.79-.122 11.524 2.34 5.85 9.399c-.709.141-1.024-.146-.946-.862C8.532 3.73 13.343.885 19.337 0ZM.833 22.244v-2.627a23.534 23.534 0 0 1 1.768-7.14c.236-.54.524-1.046.864-1.52.75-.209 1.065.079.945.862-3.006 6.1-3.006 12.2 0 18.304 3.24 5.813 8.16 9.302 14.762 10.465.478.351.505.734.083 1.15-.135.049-.272.09-.411.123-6.326-1.095-11.247-4.296-14.763-9.604A21.845 21.845 0 0 1 .833 22.244Z" fill="#fff"/><path fill-rule="evenodd" clip-rule="evenodd" d="M16.212 12.148c2.298-.19 4.23.55 5.798 2.216 2.152-2.12 4.66-2.681 7.525-1.683 2.865 1.383 4.222 3.667 4.07 6.854a6.78 6.78 0 0 1-1.48 3.611l-3.248 3.243c-.724.18-1.039-.106-.946-.862l3.454-3.612c1.324-2.19 1.241-4.324-.247-6.402-2.048-2.18-4.392-2.577-7.031-1.19-.625.46-1.2.979-1.727 1.56-.28.14-.553.113-.823-.083-2.035-2.43-4.475-2.95-7.319-1.56-2.04 1.408-2.85 3.336-2.426 5.787.203.816.56 1.555 1.07 2.217l9.087 9.07c.054.054.11.054.164 0a136.755 136.755 0 0 0 3.948-4.023c.356-.276.699-.262 1.028.041.18.349.153.677-.083.985l-4.153 4.145c-.621.395-1.224.368-1.809-.082a727.543 727.543 0 0 0-9.17-9.234c-1.838-2.547-2.002-5.2-.493-7.961 1.167-1.71 2.77-2.723 4.81-3.037Z" fill="#fff"/></svg>