<svg width="37" height="43" fill="none" xmlns="http://www.w3.org/2000/svg"><path d="M8.31.27c-.435.221-.649.517-.764 1.067-.418 2.076-.886 2.962-2.158 4.152-.968.902-2.215 1.46-3.848 1.706-.345.058-.82.427-1.01.788-.172.345-.172 10.709.009 12.448.509 4.85 2.347 9.33 5.448 13.228.82 1.042 2.963 3.175 4.03 4.02 2.289 1.822 5.932 3.767 8.156 4.366.435.115.665.066 1.928-.394 2.15-.788 5.055-2.437 6.983-3.972 1.091-.861 3.209-2.986 4.095-4.102 2.847-3.586 4.62-7.722 5.309-12.39.123-.805.148-1.814.172-6.927.025-4.463.008-6.039-.065-6.211-.148-.361-.673-.796-1.034-.854-1.83-.279-3.127-.91-4.218-2.06-1.034-1.099-1.395-1.862-1.789-3.798-.115-.558-.328-.854-.771-1.067-.353-.173-.386-.173-10.24-.173h-9.88L8.31.27Zm20.005 1.222c.033.066.115.419.189.78.303 1.666 1.296 3.299 2.658 4.398 1.075.862 2.126 1.346 3.488 1.617l.763.147.025 5.293c.024 5.769-.025 6.77-.444 8.821-.566 2.807-1.74 5.72-3.265 8.14-2.831 4.48-7.09 7.927-12.128 9.823l-1.043.393-1.05-.394c-7.91-2.945-13.736-9.74-15.402-17.954-.418-2.067-.468-3.052-.443-8.829l.025-5.293.763-.147c2.1-.419 3.815-1.535 5.005-3.274.6-.887 1.1-2.134 1.215-3.045.032-.238.09-.484.14-.541.057-.074 2.075-.099 9.764-.082 8.51.024 9.69.04 9.74.147Z" fill="#fff"/><path d="M10.673 3.191c-.255.098-.492.394-.657.82-.927 2.487-2.847 4.44-5.432 5.531-1.255.525-1.149-.033-1.108 5.613.033 4.374.05 4.85.206 5.867 1.033 6.474 4.463 11.84 9.887 15.46 1.609 1.066 4.399 2.428 4.998 2.428.55 0 3.364-1.362 4.89-2.371a23.857 23.857 0 0 0 3.693-3.02c.935-.943 1-1.034 1-1.32 0-.387-.204-.6-.565-.608-.23-.008-.402.131-1.346 1.067-2.109 2.1-4.21 3.536-6.81 4.652l-.879.378-.91-.386c-3.775-1.617-7.172-4.456-9.486-7.943-.698-1.042-1.765-3.16-2.2-4.35-.352-.96-.795-2.658-.976-3.74-.238-1.445-.295-2.651-.295-6.549v-3.881l.311-.123A11.009 11.009 0 0 0 8.671 8.27c.943-.952 1.846-2.248 2.264-3.257l.263-.649h14.704l.263.649c.419 1.009 1.321 2.305 2.265 3.257a10.962 10.962 0 0 0 3.684 2.446l.304.123v3.881c0 4.144-.058 5.235-.37 6.917-.484 2.593-1.32 4.776-2.765 7.189-.46.77-.558 1-.509 1.173.09.361.51.558.887.41.074-.024.328-.369.566-.763 1.682-2.716 2.675-5.416 3.192-8.64.156-1.002.172-1.494.205-5.851.041-5.646.148-5.088-1.108-5.613-2.584-1.091-4.505-3.044-5.432-5.53-.09-.247-.262-.534-.377-.64l-.214-.197-7.844-.017c-4.317-.008-7.91.008-7.976.033Z" fill="#fff"/><path d="M17.524 6.588c-1 .148-2.28.648-2.806 1.092-.402.336-.36.78.082 1 .238.132.271.124 1.034-.246 1.075-.508 1.666-.656 2.716-.656 1.018 0 1.641.148 2.585.599a5.735 5.735 0 0 1 2.683 2.659c.525 1.05.575 1.354.616 3.602l.04 2.035h-1.247v-1.707c0-1.977-.098-2.552-.55-3.454-.55-1.092-1.649-2.003-2.855-2.355-.722-.214-1.887-.197-2.642.032-1.174.361-2.257 1.297-2.815 2.421-.393.812-.492 1.444-.492 3.356v1.707h-1.247l.04-2.035c.042-2.273.091-2.552.64-3.652.362-.722.387-.935.173-1.214-.189-.23-.599-.246-.845-.025-.246.222-.78 1.379-.993 2.134-.156.574-.18.91-.213 2.896l-.033 2.24-.509.485c-.36.336-.59.64-.755.993l-.238.517v8.698l.238.492a3.417 3.417 0 0 0 1.486 1.485l.492.238 6.195.025c4.357.016 6.319 0 6.622-.066.566-.123 1.346-.632 1.707-1.124.156-.213.36-.632.451-.927.164-.517.172-.714.148-4.678l-.025-4.143-.238-.517c-.164-.353-.394-.657-.755-.993l-.508-.484-.033-2.24c-.033-1.986-.058-2.323-.222-2.905-.96-3.537-4.365-5.802-7.927-5.285Zm1.609 3.685c1.378.262 2.486 1.337 2.773 2.691.05.238.09 1.173.09 2.068v1.641h-6.892v-1.641c0-.895.04-1.83.09-2.068a3.528 3.528 0 0 1 1.838-2.372c.755-.369 1.354-.459 2.1-.32Zm5.604 7.73c.452.139 1.075.746 1.19 1.173.058.213.09 1.657.09 4.226 0 3.602-.016 3.922-.155 4.226a1.92 1.92 0 0 1-.952.951c-.312.14-.681.156-6.36.156-5.678 0-6.047-.016-6.36-.156a1.92 1.92 0 0 1-.951-.951c-.14-.304-.156-.624-.156-4.226 0-2.569.033-4.013.09-4.226.107-.402.73-1.034 1.14-1.165.436-.14 11.965-.14 12.424-.009Z" fill="#fff"/><path d="M17.87 19.988c-1.182.427-1.83 1.715-1.396 2.798.082.205.148.747.189 1.436.066 1.264.205 1.699.665 2.084.385.329.738.46 1.222.46.73 0 1.33-.377 1.65-1.034.147-.304.188-.59.238-1.502.04-.738.106-1.239.205-1.485.098-.262.131-.509.098-.845-.123-1.395-1.584-2.371-2.872-1.912Zm1.353 1.42c.328.328.378.746.156 1.173-.148.287-.172.476-.172 1.321 0 1.124-.107 1.51-.443 1.6-.673.164-.87-.205-.87-1.6 0-.845-.025-1.034-.172-1.32-.28-.543-.074-1.166.459-1.404.295-.131.788-.025 1.042.23Z" fill="#fff"/></svg>