<svg width="43" height="42" fill="none" xmlns="http://www.w3.org/2000/svg"><path fill-rule="evenodd" clip-rule="evenodd" d="M2.059 0h29.12c.837.276 1.343.85 1.518 1.722.055 4.567.055 9.133 0 13.7-.214.518-.583.668-1.107.45a.947.947 0 0 1-.287-.368L31.22 1.969a.667.667 0 0 0-.37-.452c-9.515-.054-19.03-.054-28.546 0l-.287.288a4491.512 4491.512 0 0 0 0 38.39l.287.287c9.515.055 19.03.055 28.547 0a.667.667 0 0 0 .369-.45l.082-7.384c.247-.481.616-.605 1.107-.369a.63.63 0 0 1 .287.451 173.56 173.56 0 0 1 0 7.547c-.175.873-.681 1.447-1.517 1.723H2.059C1.293 41.726.773 41.207.5 40.44V1.558C.77.796 1.29.276 2.059 0Z" fill="#fff"/><path fill-rule="evenodd" clip-rule="evenodd" d="M7.227 4.183c6.261-.013 12.523 0 18.785.041.42.28.515.65.287 1.108a.63.63 0 0 1-.451.287c-5.88.041-11.758.055-17.637.041v1.312c5.906-.013 11.812 0 17.719.041.458.198.609.54.45 1.026a.76.76 0 0 1-.45.369c-6.207.055-12.414.055-18.621 0-.32-.077-.498-.282-.534-.615a28.094 28.094 0 0 1 0-3.035.958.958 0 0 1 .452-.575ZM42.5 9.926v1.148c-.177.368-.369.737-.574 1.107.29.223.386.51.287.862l-1.764 3.076c.975.441 1.522 1.193 1.64 2.256-.035.22-.076.438-.122.656-1.001 1.852-2.054 3.67-3.158 5.455-.704.277-1.114.045-1.23-.697.949-1.709 1.92-3.404 2.911-5.086a.655.655 0 0 0 0-.738 2.687 2.687 0 0 0-.738-.492 464.5 464.5 0 0 0-5.906 10.171 77.101 77.101 0 0 1-2.707 3.282 8.773 8.773 0 0 1-1.436 2.01 3.767 3.767 0 0 1-1.805.368 73.595 73.595 0 0 1-1.886 2.256c-.713.341-1.355.245-1.928-.287a14.327 14.327 0 0 1-.615-1.312c-.766 1.152-1.655 1.262-2.666.328a2.328 2.328 0 0 1-.246-.903 24.397 24.397 0 0 0-.246-2.296 276.265 276.265 0 0 1-1.723 5.086c-.674.44-1.125.277-1.354-.493.607-1.861 1.222-3.72 1.846-5.578.563-.835 1.288-1.012 2.174-.533.181.154.331.332.451.533.142 1.018.278 2.03.41 3.035.417-.72 1.032-.98 1.846-.779.279.115.512.293.697.533.208.431.399.869.574 1.313l1.518-1.846c-.407-.592-.503-1.234-.287-1.928a37.856 37.856 0 0 0 2.297-5.496c1.966-3.456 3.948-6.9 5.947-10.336a2.431 2.431 0 0 1-.861-.738c-.112-.75.203-1.065.943-.943.236.111.469.234.697.369a88.661 88.661 0 0 1 1.846-3.117c.24-.234.513-.289.82-.164A3.067 3.067 0 0 1 39.63 8.49c1.387-.346 2.343.133 2.871 1.436Zm-2.297-.082c.63-.014.889.287.78.902a1.11 1.11 0 0 1-.41.574 6.206 6.206 0 0 1-1.026-.615c.131-.361.35-.648.656-.861ZM38.07 11.73c.84.366 1.634.817 2.38 1.354-.42.774-.872 1.526-1.354 2.256-.787-.4-1.54-.851-2.256-1.354.43-.743.84-1.495 1.23-2.256Zm-2.05 3.61c.8.43 1.593.881 2.378 1.353a1651.163 1651.163 0 0 1-5.578 9.557 20.261 20.261 0 0 1-2.297-1.354 551.566 551.566 0 0 0 5.497-9.556Zm-6.153 10.992c.72.374 1.43.77 2.133 1.19a66.807 66.807 0 0 1-1.805 2.091 4.838 4.838 0 0 1-1.23-.82l.902-2.461Zm-1.558 3.937c.383.192.739.424 1.066.698a1.188 1.188 0 0 1-.82.86c-.375-.086-.593-.319-.657-.696.083-.316.22-.603.41-.862ZM9.36 9.762c4.812-.014 9.624 0 14.437.04.537.27.66.667.369 1.19a.573.573 0 0 1-.287.205c-4.84.055-9.68.055-14.52 0-.652-.474-.652-.953 0-1.435ZM12.066 14.683c5.36-.013 10.72 0 16.078.041.56.538.505 1.003-.163 1.395-5.25.055-10.5.055-15.75 0-.552-.246-.689-.642-.41-1.19a.732.732 0 0 0 .245-.246ZM5.832 18.867c4.84-.014 9.68 0 14.52.041.656.465.656.93 0 1.395-4.84.054-9.68.054-14.52 0-.65-.478-.65-.957 0-1.436Z" fill="#fff"/><path fill-rule="evenodd" clip-rule="evenodd" d="M22.648 18.867c1.805-.014 3.61 0 5.415.041.656.465.656.93 0 1.395-1.805.054-3.61.054-5.415 0-.651-.479-.651-.957 0-1.436ZM5.75 22.394c2.57-.013 5.14 0 7.71.041.348.283.444.625.288 1.026a.913.913 0 0 1-.533.369c-2.406.055-4.813.055-7.219 0-.407-.073-.625-.319-.656-.738.053-.285.19-.518.41-.698ZM15.594 22.394c1.832-.013 3.664 0 5.496.041.146.065.27.16.369.288.187.557.009.926-.533 1.107-1.696.055-3.39.055-5.086 0-.578-.114-.783-.455-.615-1.025a.904.904 0 0 1 .369-.41ZM8.867 27.234a6.41 6.41 0 0 1 3.938 1.19c.437.41.437.82 0 1.23-.562.159-1.054.022-1.477-.41-2.102-.914-3.947-.544-5.537 1.107-1.173 1.592-1.337 3.287-.492 5.086 1.285 1.961 3.076 2.659 5.373 2.092 2.037-.858 3.09-2.403 3.158-4.635.336-.431.733-.5 1.19-.205.13.2.212.418.246.657-.269 3.193-1.964 5.135-5.086 5.824-3.058.27-5.232-.975-6.522-3.733-.838-2.566-.305-4.795 1.6-6.685a6.708 6.708 0 0 1 3.61-1.518Z" fill="#fff"/><path fill-rule="evenodd" clip-rule="evenodd" d="M11.738 31.172c.924.035 1.183.473.78 1.312a32.46 32.46 0 0 1-2.83 2.666 1.66 1.66 0 0 1-1.395-.082 14.709 14.709 0 0 1-1.846-1.846c-.205-.616.014-1 .657-1.148.114.06.237.1.369.123l1.6 1.6a119.93 119.93 0 0 1 2.665-2.625Z" fill="#fff"/></svg>