<svg width="160" height="160" fill="none" xmlns="http://www.w3.org/2000/svg"><path d="M84.071 8.29c-.638-.04-1.187-.227-1.649-.56a3.085 3.085 0 0 1-1.04-1.34c-.23-.56-.323-1.202-.275-1.927.048-.732.223-1.362.525-1.89a3.085 3.085 0 0 1 1.206-1.198c.5-.271 1.07-.386 1.708-.344.638.04 1.186.228 1.645.56.462.333.808.781 1.039 1.344.234.563.327 1.21.28 1.942-.048.725-.224 1.35-.53 1.875a3.048 3.048 0 0 1-1.205 1.194c-.498.271-1.066.386-1.704.345Zm.064-.968c.484.03.89-.067 1.22-.294a2.19 2.19 0 0 0 .758-.928c.177-.393.28-.824.311-1.293.03-.47-.016-.912-.14-1.327a2.214 2.214 0 0 0-.63-1.028c-.296-.27-.687-.42-1.171-.452-.485-.032-.892.068-1.22.297a2.22 2.22 0 0 0-.76.938c-.176.396-.28.829-.31 1.298-.031.47.015.91.14 1.322.123.412.333.752.63 1.019.297.267.687.416 1.172.448ZM97.64.219l.414.753a1.782 1.782 0 0 1-.817.284 4.201 4.201 0 0 1-.97-.035c-.353-.05-.746-.108-1.177-.173-.487-.076-.91-.037-1.268.117-.36.154-.665.419-.917.793-.253.374-.461.853-.627 1.437l.09.018c.321-.386.71-.64 1.166-.763a3.063 3.063 0 0 1 1.399-.045 2.916 2.916 0 0 1 1.391.663c.385.336.655.776.81 1.32.156.544.163 1.179.02 1.904-.142.723-.395 1.32-.758 1.795-.36.474-.8.809-1.32 1.003-.517.192-1.086.228-1.707.107-.622-.121-1.137-.373-1.547-.755-.41-.384-.688-.89-.834-1.516-.145-.629-.133-1.369.034-2.22l.146-.737c.303-1.538.795-2.653 1.476-3.345.685-.692 1.559-.948 2.622-.769.377.061.71.123 1.002.186.291.063.549.1.772.108.224.01.423-.034.6-.13Zm-4.084 8.224c.42.082.8.047 1.144-.104.346-.15.637-.4.875-.749.239-.352.41-.787.511-1.306.1-.503.101-.948.005-1.334a1.83 1.83 0 0 0-.541-.946c-.268-.245-.615-.409-1.04-.492a2.17 2.17 0 0 0-.868-.005c-.268.056-.51.17-.725.34-.215.17-.4.391-.554.666a3.575 3.575 0 0 0-.348.978c-.152.774-.092 1.428.182 1.964.273.536.726.865 1.36.988Zm8.943 3.261c-.63-.208-1.123-.535-1.479-.98a3.032 3.032 0 0 1-.641-1.57c-.072-.6.004-1.232.227-1.899.226-.678.552-1.235.976-1.672a3.136 3.136 0 0 1 1.467-.872c.554-.145 1.134-.118 1.74.082.473.156.869.384 1.19.683.321.3.551.645.688 1.038.137.393.166.808.084 1.245l-1.032-.341a1.667 1.667 0 0 0-.255-.982c-.188-.327-.51-.565-.965-.715a1.924 1.924 0 0 0-1.164-.036c-.369.106-.701.32-.996.64-.291.32-.521.732-.689 1.236-.173.516-.241.992-.206 1.429.038.437.172.811.402 1.122.233.312.553.535.961.67.269.089.528.123.777.102.25-.02.48-.093.69-.216a1.63 1.63 0 0 0 .533-.52l1.032.341a2.508 2.508 0 0 1-1.945 1.371c-.434.06-.899.008-1.395-.156Zm5.257 4.587a2.394 2.394 0 0 1-.427-.25 1.277 1.277 0 0 1-.235-.201l.658-.745c.21.172.411.293.603.362a.84.84 0 0 0 .603-.016c.213-.076.456-.248.728-.515l.419-.412.662-7.508 1.068.5-.634 5.9.066.032 4.171-4.247 1.068.5-6.174 6.023a3.078 3.078 0 0 1-.841.604 1.893 1.893 0 0 1-.86.19 2.152 2.152 0 0 1-.875-.217Zm6.299 2.244 1.629-2.555.498.314c.203-.05.395-.12.577-.211a3.08 3.08 0 0 0 .563-.378c.197-.161.412-.373.645-.635.234-.265.502-.594.803-.986l1.702-2.225 3.8 2.393-3.247 5.093.919.579-1.628 2.554-.919-.579 1.086-1.703-4.423-2.786-1.086 1.703-.919-.578Zm3.17-1.584 2.882 1.815 2.704-4.241-2.025-1.276-1.113 1.404a19.89 19.89 0 0 1-1.28 1.477c-.392.404-.781.678-1.168.822Zm8.62 5.12 6.122-2.022.965.796-4.523 5.415-.837-.691 3.498-4.188-6.108 2.034-.978-.808 4.522-5.414.837.69-3.498 4.188Zm9.014 1.851.736-.693 3.956 4.15-.736.694-1.598-1.677-4.404 4.147-.748-.785 4.404-4.146-1.61-1.69Zm5.919 8.842 1.209 1.62c.495.661.704 1.292.628 1.893-.076.6-.374 1.091-.892 1.473a2.31 2.31 0 0 1-1.105.45 2.15 2.15 0 0 1-1.178-.203c-.39-.184-.75-.496-1.08-.938l-1.769-2.369 5.685-4.194.648.868-4.871 3.594 1.121 1.5c.257.344.559.559.906.645.347.086.664.023.951-.188.301-.222.464-.514.489-.875.025-.36-.091-.713-.347-1.056l-1.209-1.619.814-.6Zm3.661 13.634 6.401-3.008 2.38 5.004-6.401 3.008-.465-.978 5.484-2.577-1.45-3.048-5.484 2.577-.465-.978Zm1.316 9.202 9.268-2.961.321.994-1.07.342.039.122c.142.039.325.096.549.171.229.078.456.22.681.428.229.209.414.532.555.968.183.564.202 1.106.057 1.627-.144.521-.438.986-.881 1.394-.442.407-1.017.724-1.725.95-.714.229-1.372.306-1.974.232-.598-.075-1.11-.28-1.535-.616a2.75 2.75 0 0 1-.904-1.343c-.14-.43-.179-.797-.12-1.102a2.01 2.01 0 0 1 .303-.756c.142-.2.262-.357.361-.471l-.029-.088-3.563 1.14-.333-1.03Zm6.225-.872c-.509.162-.934.38-1.275.653-.338.271-.571.585-.698.94-.124.354-.12.738.014 1.15.139.43.369.754.691.968.325.217.705.336 1.142.357a3.86 3.86 0 0 0 1.379-.195 3.73 3.73 0 0 0 1.211-.628c.337-.265.57-.578.698-.94.132-.36.128-.758-.014-1.194-.135-.419-.356-.737-.661-.953-.303-.218-.668-.339-1.096-.363-.424-.024-.888.044-1.391.205Zm-.521 12.102c-.113-.625-.063-1.2.15-1.726a3.079 3.079 0 0 1 1.057-1.326c.49-.358 1.095-.602 1.815-.731.726-.13 1.383-.114 1.972.05a3.102 3.102 0 0 1 1.461.874c.385.418.635.94.748 1.565.114.625.064 1.2-.15 1.722a3.045 3.045 0 0 1-1.061 1.326c-.494.362-1.103.608-1.829.739-.719.129-1.372.11-1.959-.058a3.057 3.057 0 0 1-1.456-.875c-.385-.415-.634-.935-.748-1.56Zm.962-.173c.086.475.28.844.58 1.106a2.21 2.21 0 0 0 1.09.508c.426.075.872.071 1.338-.012a3.812 3.812 0 0 0 1.261-.455c.376-.22.66-.505.852-.856.192-.351.245-.764.159-1.24-.087-.474-.282-.843-.585-1.105a2.24 2.24 0 0 0-1.099-.505 3.82 3.82 0 0 0-1.342.013 3.782 3.782 0 0 0-1.258.454 2.194 2.194 0 0 0-.842.854c-.189.35-.24.763-.154 1.238Zm.208 9.559c-.035-.677.086-1.269.361-1.775a3.022 3.022 0 0 1 1.213-1.195c.533-.29 1.161-.453 1.886-.49.724-.036 1.369.063 1.935.298a3.13 3.13 0 0 1 1.355 1.041c.337.46.522 1.008.554 1.642.019.366-.024.73-.128 1.094a2.696 2.696 0 0 1-.549 1.005c-.258.306-.609.558-1.051.755-.442.196-.993.311-1.653.345l-.46.023-.277-5.418.939-.047.221 4.32c.399-.02.751-.118 1.056-.292.305-.172.54-.407.707-.706.166-.296.239-.639.219-1.03-.022-.43-.148-.796-.379-1.1a2.122 2.122 0 0 0-.865-.676 2.453 2.453 0 0 0-1.109-.197l-.626.032c-.534.027-.982.141-1.344.343a1.99 1.99 0 0 0-.803.816 2.255 2.255 0 0 0-.226 1.163c.014.284.067.538.159.763.094.227.227.42.398.58.175.16.387.279.637.358l-.241 1.058a2.34 2.34 0 0 1-.968-.506 2.708 2.708 0 0 1-.675-.93 3.56 3.56 0 0 1-.286-1.274Zm.31 6.388 7.061.509-.079 1.078-3.071-.221-.052.713 2.888 2.743-.102 1.39-3.195-3.079-3.869 2.607.102-1.39 3.146-2.088.071-.969-2.979-.214.079-1.079Zm5.28 9.288.996.19-1.088 5.615-.996-.19.439-2.268-5.956-1.141.206-1.062 5.956 1.141.443-2.285Z" fill="#fff"/><path d="M149.466 107.663c.14-.342.352-.621.635-.836.286-.215.607-.349.961-.404a1.979 1.979 0 0 1 1.046.129c.347.14.628.351.842.631.215.285.349.603.402.953.055.352.013.7-.127 1.042-.14.345-.353.624-.639.835a2.047 2.047 0 0 1-.954.402 1.94 1.94 0 0 1-1.048-.126 1.94 1.94 0 0 1-.84-.635 2.056 2.056 0 0 1-.408-.951 1.926 1.926 0 0 1 .13-1.04Z" fill="#FF4646"/><path d="M149.466 107.663c.14-.342.352-.621.635-.836.286-.215.607-.349.961-.404a1.979 1.979 0 0 1 1.046.129c.347.14.628.351.842.631.215.285.349.603.402.953.055.352.013.7-.127 1.042-.14.345-.353.624-.639.835a2.047 2.047 0 0 1-.954.402 1.94 1.94 0 0 1-1.048-.126 1.94 1.94 0 0 1-.84-.635 2.056 2.056 0 0 1-.408-.951 1.926 1.926 0 0 1 .13-1.04Z" fill="url(#a)" fill-opacity=".3"/><path d="M149.466 107.663c.14-.342.352-.621.635-.836.286-.215.607-.349.961-.404a1.979 1.979 0 0 1 1.046.129c.347.14.628.351.842.631.215.285.349.603.402.953.055.352.013.7-.127 1.042-.14.345-.353.624-.639.835a2.047 2.047 0 0 1-.954.402 1.94 1.94 0 0 1-1.048-.126 1.94 1.94 0 0 1-.84-.635 2.056 2.056 0 0 1-.408-.951 1.926 1.926 0 0 1 .13-1.04Z" fill="url(#b)" fill-opacity=".3"/><path d="M141.113 119.737c.353-.529.789-.911 1.309-1.144a3.123 3.123 0 0 1 1.686-.231c.603.078 1.21.318 1.82.719.615.405 1.078.869 1.389 1.392.31.526.459 1.071.448 1.635-.013.567-.195 1.116-.548 1.645-.353.53-.789.91-1.307 1.141a3.07 3.07 0 0 1-1.689.229c-.608-.078-1.219-.319-1.834-.724-.61-.401-1.069-.864-1.376-1.388a3.027 3.027 0 0 1-.443-1.633c.011-.564.192-1.111.545-1.641Zm.815.537c-.268.402-.385.801-.35 1.198.034.396.179.768.434 1.115.255.348.58.651.975.911.395.259.804.439 1.228.538.424.1.827.089 1.21-.033.383-.121.709-.383.977-.786.268-.402.383-.802.346-1.201a2.203 2.203 0 0 0-.442-1.12 3.808 3.808 0 0 0-.978-.913 3.775 3.775 0 0 0-1.224-.536 2.214 2.214 0 0 0-1.203.038c-.381.123-.705.386-.973.789Zm-.542 15.219-.864-.016c-.017-.298.035-.58.157-.846.123-.266.294-.54.513-.819.219-.28.465-.59.737-.93.308-.381.483-.765.527-1.152.044-.386-.034-.781-.236-1.185-.201-.403-.515-.821-.943-1.254l-.061.069c.178.468.207.929.087 1.384a3.01 3.01 0 0 1-.656 1.229 2.91 2.91 0 0 1-1.27.871c-.485.164-1.003.178-1.556.042-.552-.135-1.109-.445-1.671-.929-.56-.482-.957-.997-1.19-1.546a2.884 2.884 0 0 1-.22-1.637c.089-.541.341-1.05.756-1.526.414-.475.89-.795 1.427-.959.539-.162 1.118-.15 1.737.035.622.187 1.262.565 1.922 1.133l.572.491c1.191 1.026 1.92 2.005 2.186 2.936.263.934.052 1.815-.633 2.644a20.2 20.2 0 0 1-.659.771c-.2.22-.36.425-.479.613s-.18.382-.183.581Zm-5.152-7.609c-.279.321-.438.667-.477 1.038-.04.373.032.749.219 1.128.189.38.484.743.886 1.089.39.336.778.559 1.162.668.383.111.748.112 1.095.003.347-.11.663-.327.946-.653.208-.238.353-.486.437-.745a1.71 1.71 0 0 0 .063-.794 2.193 2.193 0 0 0-.307-.81 3.604 3.604 0 0 0-.681-.786c-.599-.516-1.2-.789-1.804-.819-.603-.031-1.116.196-1.539.681Zm-7.255 6.07c.493-.441 1.023-.705 1.589-.792a3.083 3.083 0 0 1 1.689.223c.559.235 1.075.614 1.548 1.136.481.532.806 1.089.978 1.671.17.586.183 1.153.036 1.699-.147.55-.458 1.037-.934 1.462-.37.331-.765.561-1.186.69-.42.129-.836.156-1.248.08a2.415 2.415 0 0 1-1.129-.544l.809-.722c.277.183.606.272.984.266.379-.002.747-.162 1.103-.48.316-.282.518-.611.608-.987.09-.371.067-.764-.067-1.178-.135-.409-.381-.812-.739-1.207-.365-.404-.748-.699-1.147-.885-.401-.183-.794-.253-1.18-.208a1.915 1.915 0 0 0-1.061.498c-.21.188-.368.395-.474.621-.106.226-.156.46-.152.702.004.243.068.482.19.718l-.809.722a2.496 2.496 0 0 1-.416-1.138 2.533 2.533 0 0 1 .18-1.22c.163-.404.439-.78.828-1.127Zm-6.631 2.285c.151-.105.294-.187.43-.245.134-.06.232-.094.293-.104l.326.938c-.255.096-.46.21-.615.341a.833.833 0 0 0-.284.53c-.039.221-.009.516.09.883l.153.566 6.24 4.283-.964.676-4.848-3.465-.06.042 1.652 5.703-.964.676-2.217-8.312a3.019 3.019 0 0 1-.112-1.026c.023-.311.109-.59.258-.836.146-.245.354-.461.622-.65Zm-5.064 4.329 1.431 2.669-.521.276c-.057.199-.09.4-.1.603-.01.202.008.427.053.673.043.25.122.541.237.871.116.333.271.727.466 1.181l1.106 2.571-3.971 2.102-2.852-5.321-.96.508-1.43-2.669.96-.508.953 1.779 4.622-2.447-.954-1.779.96-.509Zm-.18 3.522-3.011 1.594 2.375 4.432 2.116-1.12-.678-1.655a19.516 19.516 0 0 1-.66-1.836c-.16-.539-.207-1.01-.142-1.415Zm-8.74 4.922-1.261 6.289-1.174.439-2.496-6.585 1.018-.382 1.931 5.094 1.244-6.282 1.191-.446 2.496 6.585-1.018.382-1.931-5.094Zm-6.099 6.875.24.979-5.59 1.354-.24-.98 2.258-.546-1.436-5.858 1.057-.256 1.436 5.858 2.275-.551Zm-10.63.711-2.014.239c-.823.098-1.478-.035-1.965-.399-.486-.364-.767-.864-.844-1.501-.05-.419.002-.811.156-1.177a2.13 2.13 0 0 1 .763-.916c.355-.245.806-.4 1.356-.465l2.947-.35.838 6.988-1.08.128-.718-5.987-1.867.222c-.427.05-.765.204-1.013.461-.247.257-.35.561-.308.913.044.37.218.656.52.857.303.201.668.276 1.095.225l2.014-.238.12 1Zm-13.865-3.614L77.22 160l-5.552-.431.551-7.016 1.085.085-.472 6.011 3.382.262.472-6.011 1.084.084Zm-8.655-3.426-2 9.47-1.03-.215.232-1.094-.126-.026a9.611 9.611 0 0 1-.422.389 1.949 1.949 0 0 1-.71.376c-.296.094-.67.094-1.121 0-.584-.122-1.067-.374-1.451-.757-.384-.383-.644-.866-.782-1.45-.137-.585-.129-1.238.024-1.962.154-.729.412-1.335.775-1.818.362-.48.795-.821 1.3-1.021.502-.198 1.043-.236 1.62-.116.445.093.786.241 1.023.443.236.205.406.417.51.636.105.221.183.403.234.545l.09.019.77-3.641 1.064.222Zm-2.32 5.808c.11-.52.13-.995.061-1.425-.07-.426-.228-.783-.476-1.068-.248-.283-.585-.469-1.012-.558-.445-.093-.841-.054-1.188.117a2.188 2.188 0 0 0-.878.809 3.804 3.804 0 0 0-.512 1.288c-.103.485-.12.937-.051 1.357.064.422.223.778.476 1.068.249.293.599.486 1.05.58.433.09.82.057 1.16-.099.34-.154.627-.41.86-.767.231-.354.402-.788.51-1.302Zm-10.334-6.449c.603.212 1.08.54 1.434.985.35.444.563.967.635 1.569.07.601-.017 1.244-.26 1.93-.246.691-.587 1.25-1.022 1.677a3.105 3.105 0 0 1-1.487.829c-.556.125-1.136.082-1.739-.13-.602-.212-1.079-.539-1.43-.983a3.026 3.026 0 0 1-.633-1.574c-.072-.605.015-1.253.26-1.944.245-.685.585-1.24 1.022-1.663.434-.424.93-.698 1.486-.824.553-.126 1.131-.084 1.734.128Zm-.326.916c-.457-.161-.875-.177-1.254-.047a2.192 2.192 0 0 0-.983.69c-.277.33-.495.717-.652 1.16a3.757 3.757 0 0 0-.228 1.315c.006.433.114.819.326 1.159.212.34.546.59 1.004.751.458.161.876.175 1.256.043s.708-.365.986-.698c.278-.334.496-.722.654-1.165a3.72 3.72 0 0 0 .226-1.311 2.175 2.175 0 0 0-.329-1.15c-.213-.337-.548-.586-1.006-.747Zm-8.468-4.567c.609.306 1.066.704 1.37 1.193a2.99 2.99 0 0 1 .441 1.64c-.011.604-.18 1.227-.509 1.87-.327.643-.734 1.15-1.22 1.522-.49.373-1.017.59-1.582.651-.57.063-1.14-.049-1.71-.336a3.354 3.354 0 0 1-.89-.655 2.68 2.68 0 0 1-.606-.972c-.14-.375-.185-.802-.137-1.281.048-.48.221-1.012.52-1.598l.208-.409 4.868 2.452-.425.834-3.881-1.955c-.18.354-.27.706-.27 1.056a1.79 1.79 0 0 0 .265.96c.176.291.44.524.79.701.387.195.77.268 1.15.219a2.132 2.132 0 0 0 1.02-.41c.305-.227.545-.513.722-.859l.283-.556c.242-.474.364-.917.368-1.33 0-.411-.105-.777-.314-1.098-.21-.318-.51-.575-.903-.773a2.355 2.355 0 0 0-.745-.241 1.664 1.664 0 0 0-.705.055 1.67 1.67 0 0 0-.628.372l-.804-.734c.26-.266.567-.461.922-.583a2.73 2.73 0 0 1 1.147-.121c.41.042.828.17 1.255.386Zm-5.613-2.837-3.951 5.839-.903-.603 1.718-2.54-.596-.399-3.83 1.128-1.163-.777 4.275-1.228-.354-4.632 1.163.777.26 3.753.811.542 1.667-2.464.903.604Zm-10.777-.093-.661.764-4.36-3.729.66-.764 1.762 1.506 3.956-4.571.825.706-3.957 4.57 1.775 1.518Z" fill="#fff"/><path d="M21.86 126.973c.23.29.369.611.417.962a2.09 2.09 0 0 1-.122 1.03c-.129.331-.34.611-.631.84-.294.23-.617.369-.968.415-.356.045-.7.004-1.032-.124a1.95 1.95 0 0 1-.849-.625 1.908 1.908 0 0 1-.414-.965 2.021 2.021 0 0 1 .122-1.023c.124-.331.334-.612.628-.843.292-.229.615-.366.97-.412a2.092 2.092 0 0 1 1.034.118c.33.126.612.335.844.627Z" fill="#FF4646"/><path d="M21.86 126.973c.23.29.369.611.417.962a2.09 2.09 0 0 1-.122 1.03c-.129.331-.34.611-.631.84-.294.23-.617.369-.968.415-.356.045-.7.004-1.032-.124a1.95 1.95 0 0 1-.849-.625 1.908 1.908 0 0 1-.414-.965 2.021 2.021 0 0 1 .122-1.023c.124-.331.334-.612.628-.843.292-.229.615-.366.97-.412a2.092 2.092 0 0 1 1.034.118c.33.126.612.335.844.627Z" fill="url(#c)" fill-opacity=".3"/><path d="M21.86 126.973c.23.29.369.611.417.962a2.09 2.09 0 0 1-.122 1.03c-.129.331-.34.611-.631.84-.294.23-.617.369-.968.415-.356.045-.7.004-1.032-.124a1.95 1.95 0 0 1-.849-.625 1.908 1.908 0 0 1-.414-.965 2.021 2.021 0 0 1 .122-1.023c.124-.331.334-.612.628-.843.292-.229.615-.366.97-.412a2.092 2.092 0 0 1 1.034.118c.33.126.612.335.844.627Z" fill="url(#d)" fill-opacity=".3"/><path d="M15.431 113.795c.29.567.407 1.133.354 1.697a3.071 3.071 0 0 1-.63 1.571c-.367.483-.876.889-1.528 1.218-.658.331-1.293.502-1.904.513a3.116 3.116 0 0 1-1.652-.421c-.49-.291-.879-.72-1.168-1.286-.289-.567-.406-1.131-.352-1.693a3.023 3.023 0 0 1 .634-1.573c.368-.487.881-.896 1.54-1.228.651-.329 1.283-.496 1.893-.503a3.07 3.07 0 0 1 1.647.423c.488.288.877.716 1.166 1.282Zm-.871.44c-.22-.431-.512-.729-.875-.895a2.212 2.212 0 0 0-1.19-.175c-.43.049-.857.18-1.279.392a3.804 3.804 0 0 0-1.077.795 2.218 2.218 0 0 0-.57 1.063c-.082.391-.014.802.206 1.232.22.431.512.728.879.893a2.25 2.25 0 0 0 1.198.171 3.8 3.8 0 0 0 1.282-.395c.422-.212.78-.477 1.074-.792.294-.316.48-.669.56-1.059.081-.39.011-.8-.208-1.23Zm-13.038-7.988.441-.738c.27.133.49.318.662.555.172.238.326.52.463.848.136.328.285.694.448 1.097.18.455.43.796.745 1.026.316.229.7.356 1.153.382.452.026.974-.039 1.564-.194l-.031-.086a2.254 2.254 0 0 1-1.253-.61 3.023 3.023 0 0 1-.75-1.175 2.876 2.876 0 0 1-.132-1.528c.096-.5.34-.955.733-1.365.392-.41.938-.737 1.64-.984.698-.245 1.345-.332 1.94-.263a2.932 2.932 0 0 1 1.54.621c.429.345.749.814.96 1.408.21.593.254 1.162.132 1.707-.125.546-.422 1.041-.89 1.484-.472.444-1.12.81-1.942 1.099l-.713.25c-1.486.522-2.702.667-3.648.435-.947-.234-1.613-.853-1.998-1.854a19.434 19.434 0 0 1-.348-.952 4.557 4.557 0 0 0-.299-.716 1.114 1.114 0 0 0-.417-.447Zm9.201-.683c-.142-.4-.366-.709-.671-.926a2.065 2.065 0 0 0-1.094-.369c-.426-.025-.89.05-1.391.226-.487.171-.873.395-1.159.674a1.82 1.82 0 0 0-.544.944c-.077.354-.043.734.102 1.14.105.297.25.545.436.746.185.201.406.35.662.448.256.098.543.143.86.135a3.6 3.6 0 0 0 1.024-.199c.748-.262 1.284-.646 1.61-1.153.325-.506.38-1.061.165-1.666Zm-1.717-9.31c.14.645.107 1.233-.098 1.765-.206.531-.55.98-1.033 1.346-.484.366-1.07.623-1.762.771-.703.15-1.35.155-1.944.013a3.138 3.138 0 0 1-1.501-.813c-.408-.4-.679-.91-.813-1.531a3.137 3.137 0 0 1-.014-1.366 2.57 2.57 0 0 1 .55-1.116 2.423 2.423 0 0 1 1.036-.705l.23 1.057a1.681 1.681 0 0 0-.722.717c-.187.328-.23.724-.129 1.19.09.412.276.75.56 1.015.28.261.633.437 1.061.527.425.087.898.074 1.421-.037.535-.115.982-.298 1.342-.55.36-.256.616-.56.769-.915.152-.357.182-.745.092-1.163a1.925 1.925 0 0 0-.306-.717 1.585 1.585 0 0 0-1.259-.673l-.23-1.057c.422-.028.822.041 1.201.207.375.164.7.417.976.761.272.342.463.767.573 1.274Zm1.309-6.796c.017.182.017.347 0 .492a1.285 1.285 0 0 1-.054.305l-.98-.184a2.07 2.07 0 0 0 .007-.7.834.834 0 0 0-.321-.509c-.175-.143-.447-.263-.817-.36l-.57-.15-6.84 3.256-.11-1.168 5.433-2.46-.007-.074-5.8-1.407-.111-1.167 8.359 2.216c.377.1.694.237.951.412.26.175.461.388.602.639.141.247.227.534.258.859Zm-1.267-6.642-3.04-.092.018-.586a2.709 2.709 0 0 0-.477-.386 3.014 3.014 0 0 0-.614-.289 5.818 5.818 0 0 0-.879-.228 19.266 19.266 0 0 0-1.262-.185L0 80.728l.137-4.47 6.063.183.033-1.08 3.04.091-.033 1.08-2.027-.06-.159 5.202 2.027.061-.033 1.081Zm-2.985-1.905.104-3.39-5.05-.152-.073 2.382 1.782.237c.738.099 1.382.213 1.931.342.55.13.985.323 1.306.58Zm.04-9.993L1.234 66.71l.198-1.23 6.991 1.11-.171 1.067-5.408-.858 4.872 4.188-.2 1.249-6.991-1.11.171-1.068 5.407.859ZM3.118 62.25l-.975-.277 1.587-5.496.975.278-.641 2.22 5.83 1.662-.3 1.04-5.83-1.663-.646 2.237Zm4.647-9.533.79-1.857c.323-.76.765-1.259 1.323-1.498.56-.24 1.136-.234 1.73.016.39.164.708.404.95.718.241.313.382.684.423 1.113.039.427-.05.894-.266 1.4l-1.156 2.718-6.52-2.742.423-.996 5.587 2.35.732-1.722c.168-.394.201-.762.1-1.103a1.079 1.079 0 0 0-.646-.719 1.157 1.157 0 0 0-1.006.025c-.326.161-.572.439-.74.833l-.79 1.856-.934-.392Zm9.973-10.06-5.852-3.96 3.133-4.575 5.852 3.96-.612.894-5.014-3.393-1.909 2.788 5.014 3.393-.612.893Zm7.332-5.814-7.274-6.431.699-.78.84.742.086-.096a9.62 9.62 0 0 1-.13-.557 1.92 1.92 0 0 1 .024-.8c.065-.302.25-.624.557-.966.396-.443.857-.735 1.382-.876.525-.14 1.076-.125 1.655.047.578.172 1.145.504 1.7.995.56.495.961 1.02 1.203 1.572.239.551.32 1.094.245 1.628-.077.532-.312 1.018-.704 1.456-.302.338-.6.558-.895.662a2.035 2.035 0 0 1-.809.125 6.99 6.99 0 0 1-.592-.07l-.06.069 2.795 2.472-.723.808Zm-3.918-4.887c.4.354.804.607 1.213.76.408.152.797.192 1.17.121.37-.073.7-.272.99-.596.302-.338.465-.699.488-1.083a2.174 2.174 0 0 0-.27-1.16 3.815 3.815 0 0 0-.87-1.081 3.73 3.73 0 0 0-1.16-.719 2.09 2.09 0 0 0-1.169-.12c-.379.07-.721.276-1.028.618-.294.329-.457.679-.49 1.05-.035.37.046.744.242 1.122.194.376.489.739.884 1.088ZM31.88 26.27c-.483.416-1.006.666-1.57.751a3.117 3.117 0 0 1-1.686-.228c-.56-.237-1.08-.63-1.558-1.18-.483-.554-.803-1.125-.961-1.713a3.057 3.057 0 0 1 .012-1.694c.165-.543.49-1.022.973-1.438.484-.415 1.006-.665 1.567-.748a3.07 3.07 0 0 1 1.69.232c.564.237 1.087.633 1.57 1.187.479.55.795 1.118.948 1.705a3.017 3.017 0 0 1-.015 1.691c-.163.54-.486 1.019-.97 1.435Zm-.64-.735c.368-.316.589-.669.663-1.06a2.176 2.176 0 0 0-.116-1.19 3.732 3.732 0 0 0-.692-1.138 3.793 3.793 0 0 0-1.037-.848 2.24 2.24 0 0 0-1.175-.292c-.402.015-.786.18-1.153.496s-.587.67-.66 1.064c-.071.393-.03.792.123 1.197.154.405.385.786.695 1.141.31.356.654.637 1.034.844.379.207.768.302 1.168.285.4-.017.784-.183 1.15-.499Zm8.192-5.065c-.569.374-1.143.572-1.721.595a3.046 3.046 0 0 1-1.652-.43c-.522-.308-.984-.762-1.384-1.363-.401-.601-.644-1.203-.729-1.807a3.09 3.09 0 0 1 .212-1.69c.227-.522.606-.959 1.139-1.31a3.366 3.366 0 0 1 1.013-.447c.367-.095.75-.11 1.149-.042.397.064.793.236 1.189.514.395.278.775.69 1.14 1.238l.255.382-4.55 2.996-.52-.779 3.628-2.389a2.315 2.315 0 0 0-.79-.754 1.815 1.815 0 0 0-.971-.246c-.341.009-.675.12-1.003.337-.362.238-.615.533-.76.885a2.102 2.102 0 0 0-.145 1.084c.048.376.18.725.395 1.049l.346.519c.295.443.622.768.982.975.36.203.731.293 1.115.271a2.292 2.292 0 0 0 1.122-.398 2.35 2.35 0 0 0 .58-.524c.148-.197.248-.41.3-.638.049-.23.044-.472-.015-.726l1.039-.333c.104.356.123.718.054 1.085-.07.365-.224.716-.46 1.051a3.58 3.58 0 0 1-.958.895Zm5.257-3.452-3.156-6.3.974-.482 1.373 2.74.643-.319.906-3.867 1.254-.62-1.038 4.3 4.226 1.983-1.254.62-3.41-1.628-.875.433 1.33 2.658-.973.482Zm5.397-9.264-.34-.949 5.417-1.92.341.949-2.188.775 2.037 5.68-1.024.363-2.038-5.68-2.205.782Z" fill="#fff"/><path d="M68.182 7.238a1.979 1.979 0 0 1-1.048-.118 2.117 2.117 0 0 1-.838-.616 1.95 1.95 0 0 1-.42-.962 1.929 1.929 0 0 1 .119-1.041 2.07 2.07 0 0 1 .621-.829c.277-.226.599-.367.967-.421.37-.055.72-.015 1.048.122.33.133.609.337.833.613a1.9 1.9 0 0 1 .424.96 1.92 1.92 0 0 1-.123 1.043c-.134.328-.34.606-.616.832a1.958 1.958 0 0 1-.967.417Z" fill="#FF4646"/><path d="M68.182 7.238a1.979 1.979 0 0 1-1.048-.118 2.117 2.117 0 0 1-.838-.616 1.95 1.95 0 0 1-.42-.962 1.929 1.929 0 0 1 .119-1.041 2.07 2.07 0 0 1 .621-.829c.277-.226.599-.367.967-.421.37-.055.72-.015 1.048.122.33.133.609.337.833.613a1.9 1.9 0 0 1 .424.96 1.92 1.92 0 0 1-.123 1.043c-.134.328-.34.606-.616.832a1.958 1.958 0 0 1-.967.417Z" fill="url(#e)" fill-opacity=".3"/><path d="M68.182 7.238a1.979 1.979 0 0 1-1.048-.118 2.117 2.117 0 0 1-.838-.616 1.95 1.95 0 0 1-.42-.962 1.929 1.929 0 0 1 .119-1.041 2.07 2.07 0 0 1 .621-.829c.277-.226.599-.367.967-.421.37-.055.72-.015 1.048.122.33.133.609.337.833.613a1.9 1.9 0 0 1 .424.96 1.92 1.92 0 0 1-.123 1.043c-.134.328-.34.606-.616.832a1.958 1.958 0 0 1-.967.417Z" fill="url(#f)" fill-opacity=".3"/><defs><radialGradient id="a" cx="0" cy="0" r="1" gradientUnits="userSpaceOnUse" gradientTransform="rotate(45.14 -.403 .056) scale(226.152)"><stop stop-color="#9000FF"/><stop offset="1" stop-opacity="0"/></radialGradient><radialGradient id="b" cx="0" cy="0" r="1" gradientUnits="userSpaceOnUse" gradientTransform="rotate(115.525 75.755 50.86) scale(172.414)"><stop stop-color="#FD0"/><stop offset="1" stop-color="#FD0" stop-opacity="0"/></radialGradient><radialGradient id="c" cx="0" cy="0" r="1" gradientUnits="userSpaceOnUse" gradientTransform="rotate(45.14 -.403 .056) scale(226.152)"><stop stop-color="#9000FF"/><stop offset="1" stop-opacity="0"/></radialGradient><radialGradient id="d" cx="0" cy="0" r="1" gradientUnits="userSpaceOnUse" gradientTransform="rotate(115.525 75.755 50.86) scale(172.414)"><stop stop-color="#FD0"/><stop offset="1" stop-color="#FD0" stop-opacity="0"/></radialGradient><radialGradient id="e" cx="0" cy="0" r="1" gradientUnits="userSpaceOnUse" gradientTransform="rotate(45.14 -.403 .056) scale(226.152)"><stop stop-color="#9000FF"/><stop offset="1" stop-opacity="0"/></radialGradient><radialGradient id="f" cx="0" cy="0" r="1" gradientUnits="userSpaceOnUse" gradientTransform="rotate(115.525 75.755 50.86) scale(172.414)"><stop stop-color="#FD0"/><stop offset="1" stop-color="#FD0" stop-opacity="0"/></radialGradient></defs></svg>